<svg width="16" height="15" viewBox="0 0 16 15" fill="none" xmlns="http://www.w3.org/2000/svg">
<path d="M6.52996 0.797042L5.22355 3.44398C5.01532 3.86596 4.61274 4.15848 4.14694 4.22622L1.22587 4.65071C0.0530948 4.82114 -0.415376 6.26252 0.433431 7.08975L2.54717 9.15014C2.88418 9.47862 3.03805 9.95195 2.95844 10.4157L2.45953 13.3251C2.25916 14.4932 3.48529 15.384 4.5343 14.8325L7.14695 13.4589C7.56358 13.2398 8.06115 13.2398 8.47778 13.4589L11.0904 14.8325C12.1394 15.3841 13.3656 14.4932 13.1652 13.3251L12.6663 10.4157C12.5867 9.95195 12.7406 9.47862 13.0776 9.15014L15.1913 7.08975C16.0399 6.26252 15.5716 4.82114 14.3989 4.65071L11.4778 4.22622C11.012 4.15848 10.6094 3.86596 10.4012 3.44398L9.09494 0.797042C8.5701 -0.265681 7.05463 -0.265681 6.52996 0.797042Z" fill="#FFE07D"/>
<path d="M13.0875 12.8718L8.47762 10.4483C8.061 10.2294 7.56342 10.2294 7.14679 10.4483L2.53697 12.8718L2.4592 13.3251C2.25883 14.4932 3.48496 15.3839 4.53397 14.8325L7.14663 13.4589C7.56326 13.2398 8.06083 13.2398 8.47746 13.4589L11.0901 14.8325C12.1391 15.3841 13.3653 14.4932 13.1649 13.3251L13.0875 12.8718Z" fill="#FFD064"/>
</svg>
